<svg xmlns="http://www.w3.org/2000/svg" width="24" height="24">
  <path d="M14.7 13.6L8 16.8c-1.4.7-2.8-1.1-2.8-1.1l6.8-3.3 2.6 1.2zm6.2 5.4c-.6 0-1.1-.1-1.7-.4a3.4 3.4 0 0 1-1.9-3.7c.2-.9-.2-1-.9-1.3l-11-5.3S6.7 6.4 8 7l7.5 3.7.8-.4c.6-.3 1-.4.9-1.3-.4-1.4.4-3 2-3.7.4-.3 1-.4 1.5-.4C22.6 5 24 6.3 24 8c0 1.2-.8 2.4-2 3-1.3.7-2.2.2-3.5.8l-.4.2.5.2c1.2.6 2.1.1 3.4.8 1.2.6 2 1.8 2 3 0 1.7-1.4 3-3.1 3zm-2-10c.3.8 1.4 1.1 2.4.6 1-.4 1.4-1.4 1-2.2-.4-.8-1.5-1-2.4-.6-1 .4-1.4 1.4-1 2.2zM16 12a.6.6 0 1 0-1.1 0 .6.6 0 0 0 1.1 0zm5.3 2.5c-1-.5-2-.2-2.4.6-.4.8 0 1.8 1 2.2 1 .5 2 .2 2.4-.6.4-.8 0-1.8-1-2.2zM3 11H0v2h3v-2zm4 0H4v2h3v-2z"/>
</svg>
